# xmcd
#
# Track frame offsets: 
#        150
#        27318
#        54133
#        76707
#        98016
#        118345
#        147334
#        159949
#        178909
#        197968
#        232817
#        253616
#        277158
#        314734
#        333818
#
# Disc length: 4673 seconds
#
# Revision: 0
# Processed by: cddbd v1.5.2PL0 Copyright (c) Steve Scherf et al.
# Submitted via: ExactAudioCopy v1.0b1
#
DISCID=cd123f0f
DTITLE=Three Yardbirds  - In The Hall - Disc 2
DYEAR=1900
DGENRE=
TTITLE0=Star Cycle
TTITLE1=The Pump
TTITLE2=Goodbye Pork Pie Hat
TTITLE3=Led Boots
TTITLE4=People Get Ready
TTITLE5=Hi Ho Silver Lining
TTITLE6=Prelude
TTITLE7=Who's To Blame
TTITLE8=City Sirens
TTITLE9=Stairway To Heaven
TTITLE10=Tulsa Time
TTITLE11=Wee Wee Baby
TTITLE12=Layla
TTITLE13=Bombers Moon
TTITLE14=Good Night Irene
EXTD=
EXTT0=
EXTT1=
EXTT2=
EXTT3=
EXTT4=
EXTT5=
EXTT6=
EXTT7=
EXTT8=
EXTT9=
EXTT10=
EXTT11=
EXTT12=
EXTT13=
EXTT14=
PLAYORDER=
